<svg width="110" height="110" viewBox="0 0 110 110" fill="none" xmlns="http://www.w3.org/2000/svg">
<rect x="0.377968" y="0.377968" width="109.244" height="109.244" rx="5.66952" stroke-dasharray="3.02 3.02"/>
<rect x="47.1819" y="47.6768" width="14.6364" height="14.6364" fill="#F4F4F4"/>
<path d="M54.5 45.5859C48.1474 45.5859 43 50.7333 43 57.0859C43 63.4385 48.1474 68.5859 54.5 68.5859C60.8526 68.5859 66 63.4385 66 57.0859C66 50.7333 60.8526 45.5859 54.5 45.5859ZM59.1 59.2433H56.8V61.5433C56.8 62.8152 55.7719 63.8433 54.5 63.8433C53.2281 63.8433 52.2 62.8152 52.2 61.5433V59.2433H49.9C48.6281 59.2433 47.6 58.2152 47.6 56.9433C47.6 55.6714 48.6281 54.6433 49.9 54.6433H52.2V52.3433C52.2 51.0714 53.2281 50.0433 54.5 50.0433C55.7719 50.0433 56.8 51.0714 56.8 52.3433V54.6433H59.1C60.3719 54.6433 61.4 55.6714 61.4 56.9433C61.4 58.2152 60.3719 59.2433 59.1 59.2433Z" fill="#d3d3d3" stroke="#d3d3d3" stroke-width="0.5"/>
</svg>
