<svg width="31" height="26" viewBox="0 0 31 26" fill="none" xmlns="http://www.w3.org/2000/svg">
<path d="M17.8641 7.15738C17.8641 7.87731 18.1501 8.56776 18.6592 9.07683C19.1683 9.5859 19.8587 9.87189 20.5787 9.87189C21.2986 9.87189 21.989 9.5859 22.4981 9.07683C23.0072 8.56776 23.2932 7.87731 23.2932 7.15738C23.2932 6.43745 23.0072 5.747 22.4981 5.23793C21.989 4.72886 21.2986 4.44287 20.5787 4.44287C19.8587 4.44287 19.1683 4.72886 18.6592 5.23793C18.1501 5.747 17.8641 6.43745 17.8641 7.15738Z" fill="#B1B1B1"/>
<path d="M24.4977 14.3477C21.4188 14.3477 18.9218 16.8447 18.9218 19.9236C18.9218 23.0024 21.4188 25.4994 24.4977 25.4994C27.5766 25.4994 30.0736 23.0024 30.0736 19.9236C30.0736 16.8447 27.5766 14.3477 24.4977 14.3477ZM26.9071 19.6015H25.3818V22.4488C25.3818 22.8132 25.088 23.107 24.7236 23.107H24.2745C23.9101 23.107 23.6164 22.8132 23.6164 22.4488V19.6015H22.091C21.9159 19.4264 21.9159 19.1383 22.091 18.9632L24.1813 16.8729C24.3564 16.6978 24.6417 16.6978 24.8197 16.8729L26.9099 18.9632C27.0822 19.1383 27.0822 19.4236 26.9071 19.6015Z" fill="#B1B1B1"/>
<path d="M17.7661 19.9212C17.7661 18.8817 18.0203 17.91 18.4412 17.0316L17.5147 16.1051C16.8706 15.4611 15.8283 15.4611 15.1871 16.1051L14.0064 17.2858C13.4895 17.8027 12.6534 17.8027 12.1365 17.2858L7.98422 13.1335C7.28935 12.4387 6.16513 12.4387 5.47026 13.1335L1.65696 16.9468V3.4336C1.65696 2.57208 2.35748 1.87156 3.219 1.87156H25.0989C25.9604 1.87156 26.6609 2.57208 26.6609 3.4336V13.5798C27.1807 13.7578 27.6778 13.9809 28.1326 14.2719V3.4336C28.1326 1.76139 26.7711 0.399902 25.0989 0.399902H3.219C1.54679 0.399902 0.185303 1.76139 0.185303 3.4336V22.3702C0.185303 24.0424 1.54679 25.4039 3.219 25.4039H20.6162C18.8959 24.1865 17.7661 22.1894 17.7661 19.9212Z" fill="#B1B1B1"/>
</svg>
