<svg width="29" height="31" viewBox="0 0 29 31" fill="none" xmlns="http://www.w3.org/2000/svg">
<mask id="path-1-outside-1_22586_87801" maskUnits="userSpaceOnUse" x="0" y="0" width="29" height="29" fill="black">
<rect fill="white" width="29" height="29"/>
<path fill-rule="evenodd" clip-rule="evenodd" d="M5.02638 24.4014L5.03198 24.4072C5.03764 24.413 5.04339 24.4189 5.04949 24.4241C7.50055 26.8584 10.8654 28.3623 14.5758 28.3623C16.1257 28.3623 17.6154 28.1 19.0034 27.617L18.6643 26.4081C17.9042 26.6776 17.1102 26.8741 16.2904 26.9893C17.0149 26.2718 17.6581 25.5574 18.2267 24.8478C18.0864 24.3476 17.9461 23.8474 17.8056 23.3472C17.0907 24.3253 16.2278 25.3157 15.1973 26.3133V21.522C15.9629 21.5677 16.6924 21.6752 17.3776 21.8235C17.2508 21.3725 17.1239 20.9217 16.9969 20.4708C16.4213 20.3695 15.8201 20.2964 15.1973 20.2611V15.3069H20.764C20.7565 15.565 20.7415 15.825 20.7178 16.0875C20.6686 16.635 20.5819 17.1917 20.4531 17.7567C20.8306 17.96 21.2081 18.1634 21.5856 18.3668C21.7718 17.6311 21.8921 16.9084 21.9558 16.2014C21.9833 15.9005 22.0001 15.6028 22.007 15.3075H26.8916C26.7999 17.1646 26.303 18.9149 25.4884 20.4703L26.4894 21.0099C26.5215 21.0272 26.5537 21.0445 26.5858 21.0618C27.5854 19.1564 28.1515 16.9851 28.1515 14.6812C28.1515 10.8808 26.6105 7.44052 24.1245 4.96025L24.0864 4.92248C23.4549 4.29927 22.7659 3.73648 22.0276 3.24672C20.8196 2.44536 19.4854 1.8404 18.0887 1.46332C16.9437 1.15486 15.7607 1.00189 14.5758 1C10.8654 1 7.50055 2.50327 5.04887 4.93822C5.04137 4.94514 5.03387 4.9527 5.02638 4.96025C2.54097 7.43989 1 10.8802 1 14.6812C1 18.4821 2.54097 21.9218 5.02638 24.4014ZM9.29699 22.5047C8.36629 22.8843 7.41685 23.3867 6.45866 24.0351C8.22137 25.5906 10.4276 26.6482 12.8605 26.99C11.3314 25.4754 10.1646 23.9746 9.29699 22.5047ZM13.9536 21.5044C12.8536 21.5397 11.6931 21.7128 10.495 22.0779C11.3414 23.4647 12.4751 24.8811 13.9536 26.3126V21.5044ZM8.69422 21.3943C7.80349 19.5995 7.34377 17.8577 7.19448 16.2008C7.16762 15.9005 7.15075 15.6028 7.14326 15.3069H2.25863C2.40792 18.3279 3.6297 21.0669 5.54732 23.1437C6.60857 22.4027 7.66108 21.8293 8.69422 21.3943ZM13.9536 20.2441V15.3075H8.3869C8.39377 15.5656 8.40939 15.8256 8.43312 16.0881C8.57304 17.6443 9.01653 19.2753 9.86853 20.9561C11.2877 20.4922 12.6594 20.2807 13.9536 20.2441ZM26.8923 14.0542C26.743 11.0325 25.5212 8.29414 23.6029 6.21675C23.0008 6.62594 21.8315 7.34484 20.2555 7.96491C21.1438 9.74453 21.8296 11.803 21.9808 14.0542H26.8923ZM20.7365 14.0542C20.5872 11.9522 19.9339 10.0328 19.0925 8.37661C17.9388 8.73983 16.6252 9.01934 15.1966 9.09991V14.0542H20.7365ZM13.9536 14.0542V9.11754C12.7044 9.08229 11.3839 8.88399 10.0191 8.45404C9.19705 10.092 8.56117 11.9843 8.41438 14.0542H13.9536ZM7.17074 14.0542C7.3194 11.8333 7.98963 9.79993 8.861 8.03604C7.77539 7.59412 6.66666 6.99861 5.54795 6.21738C3.63033 8.29414 2.40855 11.0325 2.25926 14.0542H7.17074ZM13.9536 3.05598C13.0723 3.94233 11.763 5.41665 10.6356 7.32532C11.7843 7.66211 12.8967 7.82327 13.9536 7.85663V3.05598ZM15.1973 3.05598V7.83963C16.3878 7.7685 17.4909 7.54817 18.4753 7.25734C17.3566 5.38202 16.0686 3.93226 15.1973 3.05598ZM12.8949 2.3673C10.4488 2.70346 8.23012 3.76418 6.45866 5.32726C7.47119 6.01279 8.47435 6.53466 9.45627 6.92118C10.6 4.93129 11.9361 3.36444 12.8949 2.3673ZM16.256 2.3673C17.2048 3.35437 18.5228 4.89856 19.6584 6.8576C21.0288 6.33447 22.0788 5.72259 22.6897 5.32474C20.9183 3.76292 18.7008 2.70346 16.256 2.3673Z"/>
</mask>
<path fill-rule="evenodd" clip-rule="evenodd" d="M5.02638 24.4014L5.03198 24.4072C5.03764 24.413 5.04339 24.4189 5.04949 24.4241C7.50055 26.8584 10.8654 28.3623 14.5758 28.3623C16.1257 28.3623 17.6154 28.1 19.0034 27.617L18.6643 26.4081C17.9042 26.6776 17.1102 26.8741 16.2904 26.9893C17.0149 26.2718 17.6581 25.5574 18.2267 24.8478C18.0864 24.3476 17.9461 23.8474 17.8056 23.3472C17.0907 24.3253 16.2278 25.3157 15.1973 26.3133V21.522C15.9629 21.5677 16.6924 21.6752 17.3776 21.8235C17.2508 21.3725 17.1239 20.9217 16.9969 20.4708C16.4213 20.3695 15.8201 20.2964 15.1973 20.2611V15.3069H20.764C20.7565 15.565 20.7415 15.825 20.7178 16.0875C20.6686 16.635 20.5819 17.1917 20.4531 17.7567C20.8306 17.96 21.2081 18.1634 21.5856 18.3668C21.7718 17.6311 21.8921 16.9084 21.9558 16.2014C21.9833 15.9005 22.0001 15.6028 22.007 15.3075H26.8916C26.7999 17.1646 26.303 18.9149 25.4884 20.4703L26.4894 21.0099C26.5215 21.0272 26.5537 21.0445 26.5858 21.0618C27.5854 19.1564 28.1515 16.9851 28.1515 14.6812C28.1515 10.8808 26.6105 7.44052 24.1245 4.96025L24.0864 4.92248C23.4549 4.29927 22.7659 3.73648 22.0276 3.24672C20.8196 2.44536 19.4854 1.8404 18.0887 1.46332C16.9437 1.15486 15.7607 1.00189 14.5758 1C10.8654 1 7.50055 2.50327 5.04887 4.93822C5.04137 4.94514 5.03387 4.9527 5.02638 4.96025C2.54097 7.43989 1 10.8802 1 14.6812C1 18.4821 2.54097 21.9218 5.02638 24.4014ZM9.29699 22.5047C8.36629 22.8843 7.41685 23.3867 6.45866 24.0351C8.22137 25.5906 10.4276 26.6482 12.8605 26.99C11.3314 25.4754 10.1646 23.9746 9.29699 22.5047ZM13.9536 21.5044C12.8536 21.5397 11.6931 21.7128 10.495 22.0779C11.3414 23.4647 12.4751 24.8811 13.9536 26.3126V21.5044ZM8.69422 21.3943C7.80349 19.5995 7.34377 17.8577 7.19448 16.2008C7.16762 15.9005 7.15075 15.6028 7.14326 15.3069H2.25863C2.40792 18.3279 3.6297 21.0669 5.54732 23.1437C6.60857 22.4027 7.66108 21.8293 8.69422 21.3943ZM13.9536 20.2441V15.3075H8.3869C8.39377 15.5656 8.40939 15.8256 8.43312 16.0881C8.57304 17.6443 9.01653 19.2753 9.86853 20.9561C11.2877 20.4922 12.6594 20.2807 13.9536 20.2441ZM26.8923 14.0542C26.743 11.0325 25.5212 8.29414 23.6029 6.21675C23.0008 6.62594 21.8315 7.34484 20.2555 7.96491C21.1438 9.74453 21.8296 11.803 21.9808 14.0542H26.8923ZM20.7365 14.0542C20.5872 11.9522 19.9339 10.0328 19.0925 8.37661C17.9388 8.73983 16.6252 9.01934 15.1966 9.09991V14.0542H20.7365ZM13.9536 14.0542V9.11754C12.7044 9.08229 11.3839 8.88399 10.0191 8.45404C9.19705 10.092 8.56117 11.9843 8.41438 14.0542H13.9536ZM7.17074 14.0542C7.3194 11.8333 7.98963 9.79993 8.861 8.03604C7.77539 7.59412 6.66666 6.99861 5.54795 6.21738C3.63033 8.29414 2.40855 11.0325 2.25926 14.0542H7.17074ZM13.9536 3.05598C13.0723 3.94233 11.763 5.41665 10.6356 7.32532C11.7843 7.66211 12.8967 7.82327 13.9536 7.85663V3.05598ZM15.1973 3.05598V7.83963C16.3878 7.7685 17.4909 7.54817 18.4753 7.25734C17.3566 5.38202 16.0686 3.93226 15.1973 3.05598ZM12.8949 2.3673C10.4488 2.70346 8.23012 3.76418 6.45866 5.32726C7.47119 6.01279 8.47435 6.53466 9.45627 6.92118C10.6 4.93129 11.9361 3.36444 12.8949 2.3673ZM16.256 2.3673C17.2048 3.35437 18.5228 4.89856 19.6584 6.8576C21.0288 6.33447 22.0788 5.72259 22.6897 5.32474C20.9183 3.76292 18.7008 2.70346 16.256 2.3673Z" fill="#DF5249"/>
<path d="M5.03198 24.4072L5.22753 24.217L5.22689 24.2164L5.03198 24.4072ZM5.02638 24.4014L5.2213 24.2107L5.219 24.2084L5.02638 24.4014ZM5.04949 24.4241L5.24168 24.2306L5.23435 24.2233L5.22649 24.2166L5.04949 24.4241ZM19.0034 27.617L19.0931 27.8745L19.3353 27.7903L19.266 27.5433L19.0034 27.617ZM18.6643 26.4081L18.9269 26.3344L18.8481 26.0536L18.5732 26.1511L18.6643 26.4081ZM16.2904 26.9893L16.0985 26.7956L15.5145 27.3739L16.3283 27.2594L16.2904 26.9893ZM18.2267 24.8478L18.4395 25.0184L18.5271 24.909L18.4893 24.7742L18.2267 24.8478ZM17.8056 23.3472L18.0682 23.2735L17.9166 22.7332L17.5855 23.1863L17.8056 23.3472ZM15.1973 26.3133H14.9245V26.9568L15.387 26.5092L15.1973 26.3133ZM15.1973 21.522L15.2135 21.2498L14.9245 21.2326V21.522H15.1973ZM17.3776 21.8235L17.3199 22.09L17.7628 22.1859L17.6401 21.7497L17.3776 21.8235ZM16.9969 20.4708L17.2594 20.3968L17.2129 20.2319L17.0441 20.2022L16.9969 20.4708ZM15.1973 20.2611H14.9245V20.5189L15.1819 20.5334L15.1973 20.2611ZM15.1973 15.3069V15.0342H14.9245V15.3069H15.1973ZM20.764 15.3069L21.0366 15.3148L21.0448 15.0342H20.764V15.3069ZM20.7178 16.0875L20.4461 16.0629L20.4461 16.0631L20.7178 16.0875ZM20.4531 17.7567L20.1872 17.696L20.141 17.8984L20.3238 17.9968L20.4531 17.7567ZM21.5856 18.3668L21.4562 18.6069L21.7641 18.7729L21.85 18.4337L21.5856 18.3668ZM21.9558 16.2014L21.6842 16.1766L21.6842 16.177L21.9558 16.2014ZM22.007 15.3075V15.0348H21.7406L21.7344 15.3012L22.007 15.3075ZM26.8916 15.3075L27.164 15.321L27.1782 15.0348H26.8916V15.3075ZM25.4884 20.4703L25.2468 20.3438L25.1217 20.5826L25.359 20.7104L25.4884 20.4703ZM26.4894 21.0099L26.6188 20.7698L26.6188 20.7698L26.4894 21.0099ZM26.5858 21.0618L26.4564 21.3019L26.6992 21.4328L26.8273 21.1885L26.5858 21.0618ZM24.1245 4.96025L24.3171 4.76718L24.3165 4.76656L24.1245 4.96025ZM24.0864 4.92248L24.2784 4.72879L24.278 4.72836L24.0864 4.92248ZM22.0276 3.24672L21.8769 3.47399L21.8769 3.47399L22.0276 3.24672ZM18.0887 1.46332L18.1598 1.20002L18.1596 1.19998L18.0887 1.46332ZM14.5758 1L14.5762 0.727273H14.5758V1ZM5.04887 4.93822L5.23406 5.13867L5.24105 5.13173L5.04887 4.93822ZM5.02638 4.96025L5.21901 5.15333L5.21998 5.15234L5.02638 4.96025ZM6.45866 24.0351L6.30582 23.8092L6.01417 24.0065L6.27821 24.2395L6.45866 24.0351ZM9.29699 22.5047L9.53186 22.3661L9.41212 22.1632L9.19399 22.2522L9.29699 22.5047ZM12.8605 26.99L12.8226 27.2601L13.6361 27.3744L13.0524 26.7962L12.8605 26.99ZM10.495 22.0779L10.4155 21.817L10.0789 21.9196L10.2622 22.22L10.495 22.0779ZM13.9536 21.5044H14.2264V21.2228L13.9449 21.2318L13.9536 21.5044ZM13.9536 26.3126L13.7639 26.5086L14.2264 26.9563V26.3126H13.9536ZM7.19448 16.2008L6.92284 16.2251L6.92285 16.2253L7.19448 16.2008ZM8.69422 21.3943L8.80005 21.6456L9.06754 21.533L8.93852 21.273L8.69422 21.3943ZM7.14326 15.3069L7.4159 15.3L7.40916 15.0342H7.14326V15.3069ZM2.25863 15.3069V15.0342H1.9721L1.98624 15.3204L2.25863 15.3069ZM5.54732 23.1437L5.34695 23.3287L5.50836 23.5035L5.70345 23.3673L5.54732 23.1437ZM13.9536 15.3075H14.2264V15.0348H13.9536V15.3075ZM13.9536 20.2441L13.9613 20.5168L14.2264 20.5093V20.2441H13.9536ZM8.3869 15.3075V15.0348H8.10682L8.11427 15.3148L8.3869 15.3075ZM8.43312 16.0881L8.70476 16.0637L8.70474 16.0636L8.43312 16.0881ZM9.86853 20.9561L9.62527 21.0794L9.731 21.288L9.95327 21.2153L9.86853 20.9561ZM23.6029 6.21675L23.8033 6.03173L23.6439 5.85915L23.4497 5.99118L23.6029 6.21675ZM26.8923 14.0542V14.3269H27.1788L27.1646 14.0407L26.8923 14.0542ZM20.2555 7.96491L20.1557 7.71112L19.8785 7.82018L20.0115 8.0867L20.2555 7.96491ZM21.9808 14.0542L21.7087 14.0724L21.7257 14.3269H21.9808V14.0542ZM19.0925 8.37661L19.3356 8.25309L19.231 8.04708L19.0106 8.11647L19.0925 8.37661ZM20.7365 14.0542V14.3269H21.0293L21.0085 14.0348L20.7365 14.0542ZM15.1966 9.09991L15.1813 8.82762L14.9239 8.84214V9.09991H15.1966ZM15.1966 14.0542H14.9239V14.3269H15.1966V14.0542ZM13.9536 9.11754H14.2264V8.8524L13.9613 8.84492L13.9536 9.11754ZM13.9536 14.0542V14.3269H14.2264V14.0542H13.9536ZM10.0191 8.45404L10.101 8.19391L9.87949 8.12412L9.77531 8.33171L10.0191 8.45404ZM8.41438 14.0542L8.14234 14.0349L8.12163 14.3269H8.41438V14.0542ZM8.861 8.03604L9.10552 8.15683L9.23537 7.89398L8.96382 7.78344L8.861 8.03604ZM7.17074 14.0542V14.3269H7.42582L7.44286 14.0724L7.17074 14.0542ZM5.54795 6.21738L5.70409 5.99378L5.509 5.85754L5.34758 6.03237L5.54795 6.21738ZM2.25926 14.0542L1.98686 14.0407L1.97272 14.3269H2.25926V14.0542ZM10.6356 7.32532L10.4008 7.18661L10.2225 7.48842L10.5588 7.58703L10.6356 7.32532ZM13.9536 3.05598H14.2264V2.39492L13.7602 2.86368L13.9536 3.05598ZM13.9536 7.85663L13.945 8.12922L14.2264 8.1381V7.85663H13.9536ZM15.1973 7.83963H14.9245V8.12914L15.2135 8.11188L15.1973 7.83963ZM15.1973 3.05598L15.3907 2.86368L14.9245 2.39493V3.05598H15.1973ZM18.4753 7.25734L18.5526 7.51889L18.8895 7.41934L18.7096 7.11761L18.4753 7.25734ZM6.45866 5.32726L6.27822 5.12276L6.01422 5.3557L6.30576 5.55309L6.45866 5.32726ZM12.8949 2.3673L13.0915 2.55633L13.6358 1.99018L12.8577 2.09711L12.8949 2.3673ZM9.45627 6.92118L9.35638 7.17495L9.57542 7.26118L9.69273 7.05708L9.45627 6.92118ZM19.6584 6.8576L19.4224 6.99437L19.5388 7.19516L19.7556 7.11239L19.6584 6.8576ZM16.256 2.3673L16.2932 2.09711L15.5152 1.99014L16.0594 2.5563L16.256 2.3673ZM22.6897 5.32474L22.8386 5.55327L23.1392 5.35746L22.8701 5.12017L22.6897 5.32474ZM5.22689 24.2164L5.22129 24.2107L4.83147 24.5922L4.83708 24.5979L5.22689 24.2164ZM5.22649 24.2166C5.22825 24.2181 5.22957 24.2193 5.2304 24.2201C5.23122 24.2208 5.23169 24.2213 5.2317 24.2213C5.23171 24.2213 5.23143 24.221 5.2307 24.2203C5.22991 24.2195 5.22903 24.2186 5.22753 24.217L4.83644 24.5973C4.84048 24.6014 4.85505 24.6167 4.87249 24.6316L5.22649 24.2166ZM14.5758 28.0896C10.9408 28.0896 7.64403 26.6165 5.24168 24.2306L4.85731 24.6176C7.35706 27.1003 10.7901 28.635 14.5758 28.635V28.0896ZM18.9138 27.3594C17.5542 27.8325 16.0948 28.0896 14.5758 28.0896V28.635C16.1567 28.635 17.6767 28.3674 19.0931 27.8745L18.9138 27.3594ZM19.266 27.5433L18.9269 26.3344L18.4017 26.4818L18.7408 27.6906L19.266 27.5433ZM16.3283 27.2594C17.1664 27.1416 17.9783 26.9407 18.7555 26.6652L18.5732 26.1511C17.8302 26.4145 17.0539 26.6066 16.2524 26.7193L16.3283 27.2594ZM18.0139 24.6773C17.4522 25.3782 16.816 26.085 16.0985 26.7956L16.4823 27.1831C17.2138 26.4587 17.8641 25.7366 18.4395 25.0184L18.0139 24.6773ZM18.4893 24.7742C18.349 24.2739 18.2086 23.7737 18.0682 23.2735L17.5431 23.4209C17.6835 23.921 17.8238 24.4212 17.9641 24.9215L18.4893 24.7742ZM15.387 26.5092C16.4277 25.5018 17.301 24.4999 18.0258 23.5081L17.5855 23.1863C16.8805 24.1508 16.028 25.1295 15.0076 26.1173L15.387 26.5092ZM14.9245 21.522V26.3133H15.47V21.522H14.9245ZM17.4352 21.5569C16.7377 21.406 15.9942 21.2963 15.2135 21.2498L15.181 21.7943C15.9315 21.839 16.6472 21.9445 17.3199 22.09L17.4352 21.5569ZM17.6401 21.7497C17.5133 21.2987 17.3864 20.8477 17.2594 20.3968L16.7343 20.5448C16.8614 20.9956 16.9882 21.4464 17.115 21.8973L17.6401 21.7497ZM15.1819 20.5334C15.7934 20.568 16.3838 20.6398 16.9496 20.7394L17.0441 20.2022C16.4587 20.0991 15.8469 20.0247 15.2127 19.9888L15.1819 20.5334ZM14.9245 15.3069V20.2611H15.47V15.3069H14.9245ZM20.764 15.0342H15.1973V15.5796H20.764V15.0342ZM20.9894 16.112C21.0137 15.8437 21.029 15.5782 21.0366 15.3148L20.4914 15.299C20.484 15.5518 20.4694 15.8063 20.4461 16.0629L20.9894 16.112ZM20.719 17.8173C20.8506 17.2403 20.9392 16.6714 20.9894 16.1119L20.4461 16.0631C20.3981 16.5985 20.3133 17.1431 20.1872 17.696L20.719 17.8173ZM20.3238 17.9968C20.7013 18.2001 21.0787 18.4035 21.4562 18.6069L21.715 18.1267C21.3375 17.9233 20.96 17.7199 20.5824 17.5166L20.3238 17.9968ZM21.6842 16.177C21.6217 16.8699 21.5038 17.5784 21.3212 18.2999L21.85 18.4337C22.0398 17.6839 22.1624 16.947 22.2274 16.2259L21.6842 16.177ZM21.7344 15.3012C21.7276 15.5903 21.7111 15.8819 21.6842 16.1766L22.2274 16.2262C22.2554 15.9191 22.2726 15.6152 22.2797 15.3139L21.7344 15.3012ZM26.8916 15.0348H22.007V15.5802H26.8916V15.0348ZM25.73 20.5969C26.5626 19.0072 27.0703 17.2184 27.164 15.321L26.6192 15.2941C26.5295 17.1108 26.0435 18.8226 25.2468 20.3438L25.73 20.5969ZM25.359 20.7104L26.36 21.2499L26.6188 20.7698L25.6178 20.2303L25.359 20.7104ZM26.36 21.2499C26.3761 21.2586 26.3921 21.2673 26.4082 21.2759C26.4242 21.2846 26.4403 21.2932 26.4564 21.3019L26.7152 20.8218C26.6991 20.8131 26.6831 20.8044 26.667 20.7958C26.6509 20.7871 26.6349 20.7785 26.6188 20.7698L26.36 21.2499ZM27.8788 14.6812C27.8788 16.9399 27.3238 19.0679 26.3443 20.9351L26.8273 21.1885C27.8469 19.245 28.4242 17.0302 28.4242 14.6812H27.8788ZM23.9319 5.15332C26.3686 7.58438 27.8788 10.956 27.8788 14.6812H28.4242C28.4242 10.8056 26.8525 7.29667 24.3171 4.76718L23.9319 5.15332ZM23.8944 5.11617L23.9325 5.15394L24.3165 4.76656L24.2784 4.72879L23.8944 5.11617ZM21.8769 3.47399C22.6001 3.95377 23.2755 4.50537 23.8948 5.1166L24.278 4.72836C23.6343 4.09317 22.9318 3.5192 22.1784 3.01945L21.8769 3.47399ZM18.0176 1.72662C19.3857 2.09599 20.6931 2.68872 21.8769 3.47399L22.1784 3.01945C20.9461 2.20199 19.585 1.5848 18.1598 1.20002L18.0176 1.72662ZM14.5753 1.27273C15.7371 1.27458 16.8964 1.42457 18.0177 1.72666L18.1596 1.19998C16.991 0.885149 15.7842 0.729198 14.5762 0.727273L14.5753 1.27273ZM5.24105 5.13173C7.64401 2.74516 10.9407 1.27273 14.5758 1.27273V0.727273C10.7902 0.727273 7.35708 2.26138 4.85668 4.74471L5.24105 5.13173ZM5.21998 5.15234C5.22829 5.14397 5.23156 5.14074 5.23394 5.13854L4.8638 4.7379C4.85118 4.74955 4.83946 4.76143 4.83278 4.76816L5.21998 5.15234ZM1.27273 14.6812C1.27273 10.9553 2.78293 7.58374 5.219 5.15332L4.83376 4.76718C2.299 7.29605 0.727273 10.805 0.727273 14.6812H1.27273ZM5.219 24.2084C2.78292 21.7779 1.27273 18.407 1.27273 14.6812H0.727273C0.727273 18.5573 2.29901 22.0656 4.83376 24.5945L5.219 24.2084ZM6.61151 24.2609C7.55449 23.6228 8.48727 23.1295 9.39999 22.7572L9.19399 22.2522C8.24531 22.6391 7.27921 23.1505 6.30582 23.8092L6.61151 24.2609ZM12.8985 26.7199C10.5202 26.3858 8.36317 25.352 6.63912 23.8306L6.27821 24.2395C8.07957 25.8292 10.3349 26.9105 12.8226 27.2601L12.8985 26.7199ZM9.06212 22.6433C9.94291 24.1356 11.1248 25.6546 12.6686 27.1837L13.0524 26.7962C11.5381 25.2962 10.3863 23.8137 9.53186 22.3661L9.06212 22.6433ZM10.5745 22.3388C11.7483 21.9811 12.885 21.8115 13.9624 21.777L13.9449 21.2318C12.8223 21.2678 11.6378 21.4445 10.4155 21.817L10.5745 22.3388ZM14.1433 26.1167C12.6793 24.6992 11.5608 23.3006 10.7278 21.9358L10.2622 22.22C11.1221 23.6288 12.2709 25.063 13.7639 26.5086L14.1433 26.1167ZM13.6809 21.5044V26.3126H14.2264V21.5044H13.6809ZM6.92285 16.2253C7.07518 17.9158 7.54418 19.6905 8.44993 21.5155L8.93852 21.273C8.06281 19.5085 7.61236 17.7995 7.4661 16.1763L6.92285 16.2253ZM6.87062 15.3138C6.87826 15.6154 6.89545 15.919 6.92284 16.2251L7.46612 16.1765C7.43979 15.8821 7.42325 15.5901 7.4159 15.3L6.87062 15.3138ZM2.25863 15.5796H7.14326V15.0342H2.25863V15.5796ZM5.74769 22.9587C3.87195 20.9272 2.67705 18.2484 2.53103 15.2934L1.98624 15.3204C2.13879 18.4074 3.38745 21.2066 5.34695 23.3287L5.74769 22.9587ZM8.58839 21.1429C7.53713 21.5855 6.46781 22.1684 5.3912 22.92L5.70345 23.3673C6.74933 22.6371 7.78502 22.073 8.80005 21.6456L8.58839 21.1429ZM13.6809 15.3075V20.2441H14.2264V15.3075H13.6809ZM8.3869 15.5802H13.9536V15.0348H8.3869V15.5802ZM8.70474 16.0636C8.6815 15.8064 8.66624 15.5522 8.65953 15.3003L8.11427 15.3148C8.1213 15.579 8.13728 15.8448 8.1615 16.1127L8.70474 16.0636ZM10.1118 20.8328C9.27509 19.1822 8.84151 17.5846 8.70476 16.0637L8.16149 16.1125C8.30458 17.7039 8.75797 19.3684 9.62527 21.0794L10.1118 20.8328ZM13.9459 19.9715C12.6272 20.0087 11.2294 20.2243 9.78378 20.6969L9.95327 21.2153C11.346 20.76 12.6916 20.5526 13.9613 20.5168L13.9459 19.9715ZM23.4026 6.40177C25.279 8.43382 26.4738 11.112 26.6199 14.0676L27.1646 14.0407C27.0121 10.953 25.7634 8.15446 23.8033 6.03173L23.4026 6.40177ZM20.3554 8.2187C21.9546 7.58947 23.1419 6.85979 23.7562 6.44233L23.4497 5.99118C22.8597 6.39208 21.7083 7.10021 20.1557 7.71112L20.3554 8.2187ZM22.2529 14.0359C22.0988 11.7408 21.3999 9.64708 20.4996 7.84311L20.0115 8.0867C20.8876 9.84198 21.5604 11.8653 21.7087 14.0724L22.2529 14.0359ZM26.8923 13.7814H21.9808V14.3269H26.8923V13.7814ZM18.8493 8.50013C19.6783 10.132 20.3183 12.016 20.4645 14.0735L21.0085 14.0348C20.8561 11.8885 20.1894 9.93367 19.3356 8.25309L18.8493 8.50013ZM15.212 9.37221C16.6665 9.29017 18.0025 9.00569 19.1744 8.63675L19.0106 8.11647C17.875 8.47398 16.5839 8.74851 15.1813 8.82762L15.212 9.37221ZM15.4694 14.0542V9.09991H14.9239V14.0542H15.4694ZM20.7365 13.7814H15.1966V14.3269H20.7365V13.7814ZM13.6809 9.11754V14.0542H14.2264V9.11754H13.6809ZM9.93712 8.71416C11.3274 9.15215 12.673 9.35424 13.9459 9.39016L13.9613 8.84492C12.7357 8.81034 11.4403 8.61584 10.101 8.19391L9.93712 8.71416ZM8.68643 14.0735C8.83011 12.0474 9.45296 10.1901 10.2628 8.57636L9.77531 8.33171C8.94114 9.99392 8.29223 11.9213 8.14234 14.0349L8.68643 14.0735ZM13.9536 13.7814H8.41438V14.3269H13.9536V13.7814ZM8.61648 7.91525C7.73316 9.70335 7.0502 11.7716 6.89862 14.0359L7.44286 14.0724C7.58861 11.8949 8.24611 9.89651 9.10552 8.15683L8.61648 7.91525ZM5.3918 6.44099C6.52666 7.23348 7.65321 7.83885 8.75817 8.28864L8.96382 7.78344C7.89757 7.3494 6.80667 6.76373 5.70409 5.99378L5.3918 6.44099ZM2.53165 14.0676C2.67768 11.112 3.87257 8.43381 5.74832 6.4024L5.34758 6.03237C3.38808 8.15447 2.13941 10.953 1.98686 14.0407L2.53165 14.0676ZM7.17074 13.7814H2.25926V14.3269H7.17074V13.7814ZM10.8704 7.46403C11.9829 5.58071 13.276 4.1242 14.147 3.24828L13.7602 2.86368C12.8685 3.76046 11.5432 5.25259 10.4008 7.18661L10.8704 7.46403ZM13.9622 7.58404C12.9272 7.55136 11.8377 7.39357 10.7123 7.06361L10.5588 7.58703C11.7309 7.93066 12.8663 8.09517 13.945 8.12922L13.9622 7.58404ZM13.6809 3.05598V7.85663H14.2264V3.05598H13.6809ZM15.47 7.83963V3.05598H14.9245V7.83963H15.47ZM18.3981 6.99579C17.4307 7.28158 16.3481 7.49766 15.181 7.56739L15.2135 8.11188C16.4275 8.03934 17.5511 7.81476 18.5526 7.51889L18.3981 6.99579ZM15.0039 3.24829C15.8649 4.1142 17.1372 5.54649 18.2411 7.39706L18.7096 7.11761C17.5761 5.21756 16.2723 3.75032 15.3907 2.86368L15.0039 3.24829ZM6.63911 5.53176C8.37177 4.00291 10.541 2.96607 12.932 2.63749L12.8577 2.09711C10.3566 2.44084 8.08847 3.52545 6.27822 5.12276L6.63911 5.53176ZM9.55617 6.6674C8.59335 6.28841 7.60792 5.77601 6.61156 5.10142L6.30576 5.55309C7.33446 6.24958 8.35535 6.78091 9.35638 7.17495L9.55617 6.6674ZM12.6983 2.17827C11.7292 3.1861 10.3778 4.77062 9.21982 6.78527L9.69273 7.05708C10.8222 5.09197 12.1429 3.54278 13.0915 2.55633L12.6983 2.17827ZM19.8943 6.72082C18.7447 4.7375 17.4116 3.17593 16.4526 2.1783L16.0594 2.5563C16.9981 3.53281 18.3009 5.05962 19.4224 6.99437L19.8943 6.72082ZM22.5409 5.0962C21.942 5.48622 20.9094 6.08816 19.5611 6.6028L19.7556 7.11239C21.1483 6.58079 22.2157 5.95896 22.8386 5.55327L22.5409 5.0962ZM16.2189 2.63748C18.6086 2.96607 20.7767 4.00169 22.5094 5.52931L22.8701 5.12017C21.0599 3.52416 18.793 2.44084 16.2932 2.09711L16.2189 2.63748Z" fill="#DF5249" mask="url(#path-1-outside-1_22586_87801)"/>
<path d="M18.4213 18.5297C18.6224 18.5354 18.8057 18.6566 18.9733 18.7451C19.5113 19.0283 20.0386 19.3288 20.5735 19.6166C21.281 19.9975 21.9879 20.3784 22.6954 20.7599C23.4029 21.1414 24.1097 21.5223 24.8166 21.9031C25.5234 22.284 26.2309 22.6655 26.9378 23.0464C27.5176 23.3589 28.0974 23.6715 28.6778 23.984C28.8466 24.0748 28.9863 24.1833 28.999 24.3752C29.0141 24.5935 28.8624 24.7607 28.6 24.8222C27.6763 25.0371 26.7526 25.2508 25.8288 25.4645C25.7776 25.4765 25.7264 25.488 25.6606 25.5035C25.6992 25.5541 25.7296 25.5972 25.7631 25.6368C26.6457 26.6836 27.529 27.7303 28.4122 28.7771C28.6038 29.0046 28.5867 29.1275 28.3351 29.3039C27.8173 29.6664 27.2988 30.0278 26.7797 30.3891C26.5395 30.5563 26.3966 30.5373 26.2101 30.3162C25.2977 29.2344 24.386 28.1532 23.4737 27.0714C23.4395 27.0306 23.4029 26.9909 23.3542 26.9364C23.26 27.0593 23.1721 27.1725 23.0855 27.2862C22.6068 27.9159 22.127 28.5455 21.6509 29.1769C21.568 29.2866 21.4694 29.3699 21.3246 29.3975C21.0932 29.4418 20.8656 29.3171 20.7942 29.1097C20.7771 29.0597 20.7638 29.0086 20.7499 28.9575C19.8376 25.7063 18.9277 22.4541 18.0078 19.2047C17.9692 19.0686 17.9471 18.9192 18.0053 18.7853C18.0717 18.6331 18.2228 18.5308 18.4049 18.5302C18.4106 18.5291 18.4162 18.5291 18.4213 18.5297Z" fill="#DF5249"/>
</svg>
