<svg width="28" height="32" viewBox="0 0 28 32" fill="none" xmlns="http://www.w3.org/2000/svg">
<path d="M14.9509 17.3986C14.9509 17.5664 14.9015 17.6965 14.8027 17.7895C14.7039 17.8819 14.5526 17.9284 14.3481 17.9291H13.7611V16.8631H14.3481C14.7501 16.8631 14.9509 17.0416 14.9509 17.3986Z" fill="#DF5249"/>
<path d="M18.7178 18.1025C18.7178 18.484 18.6121 18.78 18.4006 18.9899C18.1885 19.1998 17.8889 19.3048 17.5014 19.3048H16.9778V16.8839H17.5014C17.8889 16.8839 18.1891 16.9914 18.4006 17.2069C18.6121 17.4225 18.7178 17.721 18.7178 18.1025Z" fill="#DF5249"/>
<path fill-rule="evenodd" clip-rule="evenodd" d="M8.45986 22.499H26.8704C27.4941 22.499 27.9994 21.9969 28 21.3778V14.8095C28 14.1905 27.4941 13.6883 26.8704 13.6883H8.45986C7.83615 13.6883 7.33022 14.1905 7.33022 14.8095V21.3778C7.33022 21.9969 7.83615 22.499 8.45986 22.499ZM15.1339 18.3646C15.3327 18.2596 15.479 18.1214 15.5727 17.9498C15.6658 17.7782 15.7126 17.5941 15.712 17.398C15.712 17.1812 15.662 16.9869 15.5613 16.8154C15.4612 16.6444 15.3099 16.5093 15.1092 16.4113C14.9084 16.3132 14.6647 16.2642 14.3791 16.2642H13.0196V19.9295H13.7604V18.5223H14.3797C14.683 18.5223 14.9344 18.4695 15.1339 18.3646ZM19.2339 17.1334C19.073 16.8556 18.8457 16.6413 18.5513 16.4904C18.2568 16.3396 17.9155 16.2648 17.5274 16.2642H16.2363V19.9295H17.5274C17.9155 19.9295 18.2568 19.8547 18.5513 19.7039C18.8457 19.5537 19.073 19.3406 19.2339 19.066C19.3941 18.7913 19.4745 18.4702 19.4745 18.1025C19.4745 17.7348 19.3941 17.4118 19.2339 17.1334ZM22.31 16.2642V16.8575H20.7707V17.7977H21.9503V18.3803H20.7707V19.9295H20.0298V16.2642H22.31Z" fill="#DF5249"/>
<path d="M24.0315 27.6081C24.0308 29.3195 22.893 30.4439 21.1624 30.4445C15.5915 30.447 10.0199 30.447 4.44891 30.4445C2.70632 30.4439 1.56845 29.312 1.56782 27.5836C1.56655 21.762 1.56718 15.9403 1.56718 10.1186C1.56718 10.0093 1.56718 9.89992 1.56718 9.77548C3.05649 9.77548 4.49577 9.77673 5.93505 9.77485C8.07022 9.77233 9.5171 8.34064 9.52153 6.2239C9.5247 4.77398 9.52216 3.32344 9.52216 1.87352C9.52216 1.76165 9.52216 1.64915 9.52216 1.51905C9.64437 1.51088 9.73619 1.49957 9.828 1.49957C13.6228 1.49894 17.4176 1.49517 21.2118 1.50083C22.8961 1.50334 24.0302 2.63965 24.0308 4.32147C24.0315 7.09561 24.0321 9.86912 24.0321 12.6433H25.5974C25.598 9.83895 25.5993 7.03402 25.5949 4.22971C25.5917 2.18399 24.2626 0.518504 22.2794 0.0559386C22.128 0.0207434 21.9685 0.0088022 21.8121 0.0088022C17.4619 0.00565977 13.1105 0.0088022 8.75915 3.39079e-06C8.49067 -0.000625095 8.29564 0.086106 8.12151 0.26711C5.5184 2.97777 2.91465 5.68843 0.310902 8.39846C0.097511 8.62032 0.000630342 8.87925 0.000630342 9.19036C0.00379638 15.3552 -0.00633493 21.5206 0.00759562 27.6854C0.0132945 30.1774 1.88316 31.9969 4.39319 31.9981C9.99517 32.0006 15.5965 32.0006 21.1985 31.9981C23.744 31.9969 25.5942 30.1617 25.5961 27.6383C25.5974 25.5769 25.5974 25.5844 25.5974 23.523H24.0321C24.0315 25.5737 24.0315 25.5568 24.0315 27.6081ZM7.91445 2.73266C7.94231 2.81185 7.96068 2.83887 7.96068 2.8659C7.95624 4.09648 7.97967 5.32894 7.93535 6.55826C7.90242 7.46642 7.14954 8.16215 6.22695 8.20929C5.71279 8.23506 5.19736 8.22249 4.68193 8.22374C4.03353 8.22563 3.38449 8.22437 2.64427 8.22437C4.43814 6.354 6.16553 4.55464 7.91445 2.73266Z" fill="#DF5249"/>
</svg>
