<svg width="24" height="24" viewBox="0 0 24 24" fill="none" xmlns="http://www.w3.org/2000/svg">
<path fill-rule="evenodd" clip-rule="evenodd" d="M12 2C6.47768 2 2 6.47768 2 12C2 17.5223 6.47768 22 12 22C17.5223 22 22 17.5223 22 12C22 6.47768 17.5223 2 12 2ZM12 20.3036C7.41518 20.3036 3.69643 16.5848 3.69643 12C3.69643 7.41518 7.41518 3.69643 12 3.69643C16.5848 3.69643 20.3036 7.41518 20.3036 12C20.3036 16.5848 16.5848 20.3036 12 20.3036ZM14.4909 7.6371C13.8212 7.05005 12.9373 6.72862 11.9998 6.72862C11.0623 6.72862 10.1784 7.05228 9.50871 7.6371C8.81228 8.24648 8.42835 9.06567 8.42835 9.9429V10.1125C8.42835 10.2108 8.50871 10.2911 8.60692 10.2911H9.67835C9.77657 10.2911 9.85692 10.2108 9.85692 10.1125V9.9429C9.85692 8.95853 10.819 8.15719 11.9998 8.15719C13.1806 8.15719 14.1426 8.95853 14.1426 9.9429C14.1426 10.6371 13.6516 11.2733 12.8904 11.5657C12.4172 11.7465 12.0154 12.0634 11.7275 12.4786C11.435 12.9027 11.2833 13.4117 11.2833 13.9273V14.4072C11.2833 14.5054 11.3636 14.5858 11.4618 14.5858H12.5333C12.6315 14.5858 12.7118 14.5054 12.7118 14.4072V13.9005C12.7118 13.4608 12.9886 13.059 13.4016 12.9005C14.7185 12.3938 15.569 11.2331 15.569 9.9429C15.5712 9.06567 15.1873 8.24648 14.4909 7.6371ZM11.3687 17.5456C11.2013 17.3781 11.1072 17.151 11.1072 16.9142C11.1072 16.6774 11.2013 16.4503 11.3687 16.2829C11.5362 16.1154 11.7633 16.0214 12.0001 16.0214C12.2369 16.0214 12.464 16.1154 12.6314 16.2829C12.7989 16.4503 12.8929 16.6774 12.8929 16.9142C12.8929 17.151 12.7989 17.3781 12.6314 17.5456C12.464 17.713 12.2369 17.8071 12.0001 17.8071C11.7633 17.8071 11.5362 17.713 11.3687 17.5456Z" fill="#464646"/>
</svg>
